<?xml version="1.0" encoding="iso-8859-1"?>
<!-- Generator: Adobe Illustrator 19.0.0, SVG Export Plug-In . SVG Version: 6.00 Build 0)  -->
<svg version="1.1" id="Layer_1" xmlns="http://www.w3.org/2000/svg" xmlns:xlink="http://www.w3.org/1999/xlink" x="0px" y="0px"
	 viewBox="0 0 512 512" style="enable-background:new 0 0 512 512;" xml:space="preserve">
<g>
	<path style="fill:#FFFFFF;" d="M144.34,16.34H62.638v19.064h19.064c13.516,0,24.511,10.996,24.511,24.511
		S95.218,84.426,81.702,84.426H62.638v81.702h19.064c13.516,0,24.511,10.996,24.511,24.511s-10.995,24.511-24.511,24.511H62.638
		v81.702h19.064c13.516,0,24.511,10.996,24.511,24.511s-10.995,24.511-24.511,24.511H62.638v81.702h19.064
		c13.516,0,24.511,10.996,24.511,24.511c0,13.515-10.995,24.511-24.511,24.511H62.638v19.064h81.702V16.34z"/>
	<rect x="160.681" y="16.34" style="fill:#FFFFFF;" width="245.106" height="51.745"/>
	<rect x="160.681" y="264.17" style="fill:#FFFFFF;" width="245.106" height="73.532"/>
	<rect x="160.681" y="443.915" style="fill:#FFFFFF;" width="136.17" height="51.745"/>
	<rect x="160.681" y="84.426" style="fill:#FFFFFF;" width="245.106" height="73.532"/>
	<rect x="160.681" y="174.298" style="fill:#FFFFFF;" width="245.106" height="73.532"/>
	<path style="fill:#FFFFFF;" d="M160.681,427.574h136.17v-32.681c0-4.513,3.658-8.17,8.17-8.17h100.766v-32.681H160.681V427.574z"/>
</g>
<polygon style="fill:#A7CBE6;" points="144.34,495.66 160.681,495.66 160.681,443.915 296.851,443.915 296.851,427.574 
	160.681,427.574 160.681,354.043 405.787,354.043 405.787,337.702 160.681,337.702 160.681,264.17 405.787,264.17 405.787,247.83 
	160.681,247.83 160.681,174.298 405.787,174.298 405.787,157.957 160.681,157.957 160.681,84.426 405.787,84.426 405.787,68.085 
	160.681,68.085 160.681,16.34 144.34,16.34 "/>
<path style="fill:#98D9D5;" d="M490.213,495.66h2.723V16.34h-2.723c-4.512,0-8.17-3.657-8.17-8.17h-16.34v495.66h16.34
	C482.043,499.317,485.701,495.66,490.213,495.66z"/>
<path style="fill:#C1E8E6;" d="M351.239,495.66h98.123V16.34h-2.723c-4.512,0-8.17-3.657-8.17-8.17h-16.34v386.723
	c0,0.273-0.014,0.546-0.041,0.816c-0.02,0.202-0.054,0.398-0.088,0.594c-0.012,0.066-0.017,0.133-0.031,0.198
	c-0.047,0.234-0.107,0.463-0.173,0.688c-0.008,0.027-0.013,0.057-0.022,0.084c-0.071,0.231-0.154,0.456-0.243,0.679
	c-0.01,0.024-0.016,0.048-0.026,0.072c-0.088,0.212-0.188,0.418-0.293,0.621c-0.017,0.034-0.032,0.07-0.049,0.102
	c-0.101,0.188-0.214,0.369-0.328,0.549c-0.029,0.046-0.053,0.094-0.084,0.138c-0.112,0.168-0.235,0.327-0.359,0.486
	c-0.04,0.052-0.076,0.107-0.119,0.158c-0.155,0.188-0.32,0.368-0.491,0.542c-0.016,0.016-0.029,0.034-0.046,0.05L316.576,503.83
	h26.492C343.068,499.317,346.726,495.66,351.239,495.66z"/>
<polygon style="fill:#98D9D5;" points="313.191,403.064 313.191,484.106 394.233,403.064 "/>
<g>
	<path style="fill:#082947;" d="M419.78,400.621c0.171-0.173,0.336-0.353,0.491-0.542c0.042-0.051,0.077-0.106,0.119-0.158
		c0.124-0.159,0.247-0.318,0.359-0.486c0.031-0.045,0.054-0.093,0.084-0.138c0.115-0.18,0.228-0.361,0.328-0.549
		c0.019-0.034,0.032-0.069,0.049-0.102c0.105-0.203,0.205-0.409,0.293-0.621c0.01-0.023,0.016-0.048,0.026-0.072
		c0.089-0.222,0.173-0.448,0.243-0.679c0.009-0.027,0.013-0.057,0.022-0.084c0.066-0.227,0.126-0.454,0.173-0.688
		c0.013-0.065,0.019-0.133,0.031-0.198c0.034-0.196,0.069-0.393,0.088-0.594c0.027-0.27,0.041-0.541,0.041-0.816V8.17
		c0-4.513-3.658-8.17-8.17-8.17H54.468c-4.512,0-8.17,3.657-8.17,8.17v27.234H27.234c-13.516,0-24.511,10.996-24.511,24.511
		s10.995,24.511,24.511,24.511h19.064v81.702H27.234c-13.516,0-24.511,10.996-24.511,24.511s10.995,24.511,24.511,24.511h19.064
		v81.702H27.234c-13.516,0-24.511,10.996-24.511,24.511s10.995,24.511,24.511,24.511h19.064v81.702H27.234
		c-13.516,0-24.511,10.996-24.511,24.511c0,13.515,10.995,24.511,24.511,24.511h19.064v27.234c0,4.513,3.658,8.17,8.17,8.17h250.553
		c0.273,0,0.546-0.014,0.816-0.041c0.203-0.02,0.401-0.054,0.598-0.089c0.064-0.011,0.13-0.017,0.194-0.029
		c0.233-0.046,0.461-0.107,0.686-0.172c0.028-0.009,0.059-0.013,0.087-0.023c0.227-0.069,0.447-0.15,0.663-0.237
		c0.029-0.012,0.059-0.021,0.088-0.033c0.206-0.085,0.404-0.183,0.601-0.284c0.04-0.021,0.083-0.037,0.122-0.059
		c0.18-0.096,0.352-0.204,0.523-0.313c0.054-0.034,0.111-0.064,0.164-0.1c0.159-0.107,0.31-0.224,0.461-0.341
		c0.06-0.046,0.123-0.087,0.182-0.136c0.184-0.151,0.359-0.313,0.529-0.479c0.02-0.02,0.042-0.036,0.062-0.056l108.936-108.936
		C419.751,400.655,419.764,400.637,419.78,400.621z M19.064,452.085c0-4.506,3.665-8.17,8.17-8.17h54.468
		c4.506,0,8.17,3.665,8.17,8.17s-3.665,8.17-8.17,8.17H27.234C22.728,460.255,19.064,456.591,19.064,452.085z M62.638,476.596
		h19.064c13.516,0,24.511-10.996,24.511-24.511c0-13.515-10.995-24.511-24.511-24.511H62.638v-81.702h19.064
		c13.516,0,24.511-10.996,24.511-24.511s-10.995-24.511-24.511-24.511H62.638v-81.702h19.064c13.516,0,24.511-10.996,24.511-24.511
		s-10.995-24.511-24.511-24.511H62.638V84.426h19.064c13.516,0,24.511-10.996,24.511-24.511S95.218,35.404,81.702,35.404H62.638
		V16.34h343.149v370.383H305.021c-4.512,0-8.17,3.657-8.17,8.17V495.66H62.638V476.596z M19.064,321.362
		c0-4.506,3.665-8.17,8.17-8.17h54.468c4.506,0,8.17,3.665,8.17,8.17s-3.665,8.17-8.17,8.17H27.234
		C22.728,329.532,19.064,325.867,19.064,321.362z M19.064,190.638c0-4.506,3.665-8.17,8.17-8.17h54.468
		c4.506,0,8.17,3.665,8.17,8.17s-3.665,8.17-8.17,8.17H27.234C22.728,198.809,19.064,195.144,19.064,190.638z M19.064,59.915
		c0-4.506,3.665-8.17,8.17-8.17h54.468c4.506,0,8.17,3.665,8.17,8.17s-3.665,8.17-8.17,8.17H27.234
		C22.728,68.085,19.064,64.42,19.064,59.915z M313.191,403.064h81.042l-81.042,81.042V403.064z"/>
	<path style="fill:#082947;" d="M457.532,0h-10.894c-4.512,0-8.17,3.657-8.17,8.17s3.658,8.17,8.17,8.17h2.723V495.66h-98.123
		c-4.512,0-8.17,3.657-8.17,8.17s3.658,8.17,8.17,8.17h106.293c4.512,0,8.17-3.657,8.17-8.17V8.17
		C465.702,3.657,462.044,0,457.532,0z"/>
	<path style="fill:#082947;" d="M501.106,0h-10.894c-4.512,0-8.17,3.657-8.17,8.17s3.658,8.17,8.17,8.17h2.723V495.66h-2.723
		c-4.512,0-8.17,3.657-8.17,8.17s3.658,8.17,8.17,8.17h10.894c4.512,0,8.17-3.657,8.17-8.17V8.17C509.277,3.657,505.618,0,501.106,0
		z"/>
</g>
<g>
	<path style="fill:#FF9D49;" d="M81.702,460.255c4.506,0,8.17-3.665,8.17-8.17s-3.665-8.17-8.17-8.17H27.234
		c-4.506,0-8.17,3.665-8.17,8.17s3.665,8.17,8.17,8.17H81.702z"/>
	<path style="fill:#FF9D49;" d="M81.702,329.532c4.506,0,8.17-3.665,8.17-8.17s-3.665-8.17-8.17-8.17H27.234
		c-4.506,0-8.17,3.665-8.17,8.17s3.665,8.17,8.17,8.17H81.702z"/>
	<path style="fill:#FF9D49;" d="M81.702,198.809c4.506,0,8.17-3.665,8.17-8.17s-3.665-8.17-8.17-8.17H27.234
		c-4.506,0-8.17,3.665-8.17,8.17s3.665,8.17,8.17,8.17H81.702z"/>
	<path style="fill:#FF9D49;" d="M81.702,68.085c4.506,0,8.17-3.665,8.17-8.17s-3.665-8.17-8.17-8.17H27.234
		c-4.506,0-8.17,3.665-8.17,8.17s3.665,8.17,8.17,8.17H81.702z"/>
</g>
<g>
</g>
<g>
</g>
<g>
</g>
<g>
</g>
<g>
</g>
<g>
</g>
<g>
</g>
<g>
</g>
<g>
</g>
<g>
</g>
<g>
</g>
<g>
</g>
<g>
</g>
<g>
</g>
<g>
</g>
</svg>
